<svg width="18" height="19" viewBox="0 0 18 19" fill="none" xmlns="http://www.w3.org/2000/svg">
<path d="M7.76689 14.7522C8.12734 14.6759 10.3238 14.6759 10.6842 14.7522C10.9924 14.8233 11.3256 14.9897 11.3256 15.3528C11.3077 15.6984 11.1049 16.0049 10.8247 16.1995C10.4614 16.4827 10.035 16.6621 9.58924 16.7267C9.34273 16.7587 9.10051 16.7594 8.86259 16.7267C8.41614 16.6621 7.98975 16.4827 7.62715 16.1988C7.34623 16.0049 7.14343 15.6984 7.12551 15.3528C7.12551 14.9897 7.45874 14.8233 7.76689 14.7522ZM9.26813 2.33012C10.768 2.33012 12.3001 3.04181 13.2102 4.22262C13.8007 4.98296 14.0716 5.74257 14.0716 6.92338V7.23057C14.0716 8.13615 14.311 8.66991 14.8377 9.28501C15.2368 9.73816 15.3644 10.3198 15.3644 10.9509C15.3644 11.5813 15.1573 12.1797 14.7424 12.6655C14.1992 13.2479 13.4331 13.6197 12.6513 13.6844C11.5183 13.781 10.3846 13.8623 9.23588 13.8623C8.08643 13.8623 6.95346 13.8136 5.82048 13.6844C5.03794 13.6197 4.27188 13.2479 3.7294 12.6655C3.31448 12.1797 3.10666 11.5813 3.10666 10.9509C3.10666 10.3198 3.23493 9.73816 3.63337 9.28501C4.17657 8.66991 4.40015 8.13615 4.40015 7.23057V6.92338C4.40015 5.71062 4.70256 4.9176 5.3253 4.14128C6.25117 3.00913 7.73528 2.33012 9.20363 2.33012H9.26813Z" fill="#787878"/>
</svg>
